<svg xmlns="http://www.w3.org/2000/svg" width="900" height="500" viewBox="0 0 900 500">
  <defs>
    <linearGradient id="sbg" x1="0%" y1="0%" x2="100%" y2="100%">
      <stop offset="0%" style="stop-color:#0f172a"/>
      <stop offset="100%" style="stop-color:#1e293b"/>
    </linearGradient>
  </defs>

  <rect width="900" height="500" fill="url(#sbg)" rx="10"/>

  <text x="40" y="45" font-family="Inter, Arial, sans-serif" font-size="16" font-weight="700" fill="#f1f5f9">SHAP Explanation — Query: "noise cancelling headphones"</text>
  <text x="40" y="68" font-family="Inter, Arial, sans-serif" font-size="12" fill="#64748b">Product: Sony WH-1000XM5  |  Final Score: 0.934  |  Base Value: 0.420</text>

  <!-- Waterfall chart -->
  <!-- Base value bar -->
  <text x="200" y="108" font-family="monospace" font-size="11" fill="#64748b" text-anchor="end">base value</text>
  <rect x="210" y="94" width="168" height="22" fill="#334155" rx="3"/>
  <text x="385" y="110" font-family="monospace" font-size="10" fill="#94a3b8">  0.420</text>

  <!-- Feature contributions (positive = red/pink, negative = blue) -->
  <text x="200" y="140" font-family="monospace" font-size="11" fill="#64748b" text-anchor="end">bm25_score</text>
  <rect x="378" y="126" width="72" height="22" fill="#6366f1" rx="3"/>
  <text x="456" y="142" font-family="monospace" font-size="10" fill="#a5b4fc">  +0.180</text>

  <text x="200" y="172" font-family="monospace" font-size="11" fill="#64748b" text-anchor="end">exact_match_title</text>
  <rect x="450" y="158" width="60" height="22" fill="#6366f1" rx="3"/>
  <text x="516" y="174" font-family="monospace" font-size="10" fill="#a5b4fc">  +0.150</text>

  <text x="200" y="204" font-family="monospace" font-size="11" fill="#64748b" text-anchor="end">tfidf_cosine</text>
  <rect x="510" y="190" width="46" height="22" fill="#818cf8" rx="3"/>
  <text x="562" y="206" font-family="monospace" font-size="10" fill="#c7d2fe">  +0.114</text>

  <text x="200" y="236" font-family="monospace" font-size="11" fill="#64748b" text-anchor="end">ctr_7d</text>
  <rect x="556" y="222" width="36" height="22" fill="#818cf8" rx="3"/>
  <text x="598" y="238" font-family="monospace" font-size="10" fill="#c7d2fe">  +0.089</text>

  <text x="200" y="268" font-family="monospace" font-size="11" fill="#64748b" text-anchor="end">avg_rating</text>
  <rect x="592" y="254" width="28" height="22" fill="#a5b4fc" rx="3"/>
  <text x="626" y="270" font-family="monospace" font-size="10" fill="#c7d2fe">  +0.071</text>

  <text x="200" y="300" font-family="monospace" font-size="11" fill="#64748b" text-anchor="end">popularity_score</text>
  <rect x="620" y="286" width="22" height="22" fill="#a5b4fc" rx="3"/>
  <text x="648" y="302" font-family="monospace" font-size="10" fill="#c7d2fe">  +0.056</text>

  <text x="200" y="332" font-family="monospace" font-size="11" fill="#64748b" text-anchor="end">freshness_score</text>
  <rect x="652" y="318" width="-18" height="22" fill="#f87171" rx="3"/>
  <rect x="634" y="318" width="18" height="22" fill="#ef4444" rx="3"/>
  <text x="648" y="334" font-family="monospace" font-size="10" fill="#fca5a5">  -0.044</text>

  <text x="200" y="364" font-family="monospace" font-size="11" fill="#64748b" text-anchor="end">query_term_coverage</text>
  <rect x="616" y="350" width="-10" height="22" fill="#ef4444" rx="3"/>
  <rect x="606" y="350" width="10" height="22" fill="#ef4444" rx="3"/>
  <text x="620" y="366" font-family="monospace" font-size="10" fill="#fca5a5">  -0.022</text>

  <!-- Final score bar -->
  <text x="200" y="412" font-family="monospace" font-size="11" fill="#f1f5f9" font-weight="700" text-anchor="end">final score</text>
  <rect x="210" y="398" width="374" height="24" fill="#6366f1" rx="3"/>
  <text x="590" y="415" font-family="monospace" font-size="11" font-weight="700" fill="#fff">  0.934</text>

  <!-- Legend -->
  <rect x="650" y="100" width="12" height="12" fill="#6366f1" rx="2"/>
  <text x="668" y="111" font-family="Inter, Arial, sans-serif" font-size="11" fill="#94a3b8">Positive impact</text>
  <rect x="650" y="122" width="12" height="12" fill="#ef4444" rx="2"/>
  <text x="668" y="133" font-family="Inter, Arial, sans-serif" font-size="11" fill="#94a3b8">Negative impact</text>

  <!-- Info box -->
  <rect x="40" y="450" width="820" height="36" fill="#1e293b" rx="6" stroke="#334155" stroke-width="1"/>
  <text x="60" y="473" font-family="Inter, Arial, sans-serif" font-size="11" fill="#64748b">TreeExplainer (LightGBM LambdaMART)  |  Expected value: 0.420  |  15 features computed  |  Inference: 3.2ms</text>
</svg>
